<svg id="visual" viewBox="0 0 900 600" width="900" height="600" xmlns="http://www.w3.org/2000/svg" xmlns:xlink="http://www.w3.org/1999/xlink" version="1.1"><path d="M0 419L82 341L164 335L245 420L327 437L409 374L491 423L573 419L655 410L736 383L818 432L900 435L900 601L818 601L736 601L655 601L573 601L491 601L409 601L327 601L245 601L164 601L82 601L0 601Z" fill="#4f2d7f"></path><path d="M0 463L82 413L164 477L245 455L327 422L409 384L491 481L573 429L655 387L736 433L818 400L900 387L900 601L818 601L736 601L655 601L573 601L491 601L409 601L327 601L245 601L164 601L82 601L0 601Z" fill="#565a7c"></path><path d="M0 483L82 478L164 490L245 461L327 480L409 503L491 438L573 490L655 429L736 487L818 504L900 474L900 601L818 601L736 601L655 601L573 601L491 601L409 601L327 601L245 601L164 601L82 601L0 601Z" fill="#6d6e71"></path><path d="M0 522L82 489L164 472L245 521L327 544L409 512L491 516L573 483L655 494L736 481L818 546L900 516L900 601L818 601L736 601L655 601L573 601L491 601L409 601L327 601L245 601L164 601L82 601L0 601Z" fill="#565a7c"></path><path d="M0 552L82 565L164 574L245 538L327 568L409 518L491 551L573 519L655 553L736 528L818 529L900 521L900 601L818 601L736 601L655 601L573 601L491 601L409 601L327 601L245 601L164 601L82 601L0 601Z" fill="#4f2d7f"></path></svg>