<svg id="visual" viewBox="0 0 900 450" width="900" height="450" xmlns="http://www.w3.org/2000/svg" xmlns:xlink="http://www.w3.org/1999/xlink" version="1.1"><path d="M0 167L90 139L180 214L270 105L360 171L450 198L540 168L630 161L720 211L810 124L900 199L900 451L810 451L720 451L630 451L540 451L450 451L360 451L270 451L180 451L90 451L0 451Z" fill="#4f2d7f"></path><path d="M0 201L90 204L180 173L270 255L360 221L450 178L540 175L630 254L720 201L810 200L900 262L900 451L810 451L720 451L630 451L540 451L450 451L360 451L270 451L180 451L90 451L0 451Z" fill="#565a7c"></path><path d="M0 256L90 284L180 222L270 243L360 252L450 259L540 253L630 275L720 317L810 234L900 299L900 451L810 451L720 451L630 451L540 451L450 451L360 451L270 451L180 451L90 451L0 451Z" fill="#6d6e71"></path><path d="M0 332L90 353L180 288L270 306L360 287L450 318L540 330L630 292L720 306L810 345L900 310L900 451L810 451L720 451L630 451L540 451L450 451L360 451L270 451L180 451L90 451L0 451Z" fill="#565a7c"></path><path d="M0 399L90 367L180 394L270 350L360 369L450 395L540 353L630 399L720 374L810 385L900 358L900 451L810 451L720 451L630 451L540 451L450 451L360 451L270 451L180 451L90 451L0 451Z" fill="#4f2d7f"></path></svg>